<?xml version="1.0" encoding="UTF-8"?>
<svg width="350px" height="450px" viewBox="0 0 350 450" version="1.1" xmlns="http://www.w3.org/2000/svg" xmlns:xlink="http://www.w3.org/1999/xlink">
    <title>5R-composter</title>
    <defs>
        <polygon id="path-1" points="0 2.84217094e-14 36.604826 2.84217094e-14 36.604826 43.0106906 0 43.0106906"></polygon>
        <polygon id="path-3" points="2.84217094e-14 0 99.0766654 0 99.0766654 121.957 2.84217094e-14 121.957"></polygon>
    </defs>
    <g id="5R-composter" stroke="none" stroke-width="1" fill="none" fill-rule="evenodd">
        <g id="TxtComposter" transform="translate(28.000000, 314.330642)">
            <g id="Group-12" transform="translate(0.000000, 0.026712)">
                <mask id="mask-2" fill="white">
                    <use xlink:href="#path-1"></use>
                </mask>
                <g id="Clip-11"></g>
                <path d="M20.6274,42.9921461 C10.0964,42.7301461 0.0434,34.1931461 0.0024,23.3091461 C-0.1266,15.6801461 4.6554,9.03714614 10.9554,5.12514614 C14.2724,2.56214614 19.2244,0.726146138 23.1074,0.418146138 C27.7094,-0.276853862 35.1744,-0.950853862 34.3654,5.86714614 C33.2824,9.79514614 30.2194,9.83614614 26.8114,9.43214614 C24.1164,9.46614614 21.3684,9.35614614 18.7354,9.99414614 C11.5214,12.2261461 5.4114,20.0021461 8.5734,27.6321461 C10.8964,32.7451461 15.7734,36.8651461 21.3734,37.7881461 C26.3024,38.3361461 31.6674,38.8281461 36.0214,36.0351461 C36.7944,35.8841461 36.7024,36.8671461 36.3034,37.2701461 C32.5514,41.7131461 26.2394,43.1981461 20.6274,42.9921461" id="Fill-10" fill="#505050" mask="url(#mask-2)"></path>
            </g>
            <path d="M48.008,37.536058 C44.26,34.971058 44.485,29.769058 46.528,26.173058 C45.661,23.975058 46.844,21.206058 49.164,20.513058 C50.828,20.012058 52.512,19.579058 54.191,19.139058 C56.843,18.286058 59.689,17.909058 62.355,18.930058 C65.848,20.110058 68.293,23.466058 68.391,27.130058 C68.159,36.226058 55.562,42.744058 48.008,37.536058 M52.224,32.564058 C54.908,32.510058 59.234,30.297058 59.918,27.579058 C57.037,26.785058 53.493,28.684058 50.544,28.904058 C50.33,29.961058 49.974,31.266058 50.695,32.196058 C50.705,32.201058 50.714,32.205058 50.724,32.209058 C50.744,32.234058 50.764,32.258058 50.785,32.282058 C50.767,32.259058 50.748,32.236058 50.807,32.247058 C50.688,32.203058 50.643,32.086058 50.562,31.993058 C50.975,32.458058 51.637,32.535058 52.224,32.564058" id="Fill-13" fill="#505050"></path>
            <path d="M78.9032,39.601258 C78.8832,39.308258 79.1262,39.011258 79.4302,39.011258 C79.7352,39.011258 80.0052,39.222258 80.0202,39.539258 C80.0402,39.831258 79.7972,40.128258 79.4932,40.128258 C79.1882,40.128258 78.9192,39.917258 78.9032,39.601258" id="Fill-15" fill="#505050"></path>
            <path d="M77.5747,40.019758 C77.5547,39.726758 77.7977,39.429758 78.1017,39.429758 C78.4067,39.429758 78.6767,39.640758 78.6917,39.957758 C78.7117,40.249758 78.4687,40.546758 78.1647,40.546758 C77.8597,40.546758 77.5907,40.335758 77.5747,40.019758" id="Fill-17" fill="#505050"></path>
            <path d="M80.444,42.132758 C77.556,41.549758 77.565,36.725758 76.971,34.380758 C76.473,31.435758 75.949,28.501758 75.573,25.540758 C75.116,23.028758 75.441,20.417758 74.69,17.970758 C74.013,14.838758 77.561,12.126758 80.393,13.658758 C82.263,14.558758 82.668,16.688758 83.018,18.533758 C83.985,21.721758 83.846,25.076758 83.834,28.376758 C83.808,31.337758 84.505,41.976758 80.444,42.132758" id="Fill-19" fill="#505050"></path>
            <path d="M110.0587,39.032158 C109.6527,37.180158 109.1607,35.356158 108.8087,33.493158 C108.4757,31.730158 108.2237,29.954158 107.8387,28.203158 C106.0967,30.522158 104.8367,33.147158 103.6667,35.787158 C102.6877,37.722158 102.3287,40.308158 100.2857,41.438158 C98.9417,42.102158 97.2307,41.641158 96.3947,40.399158 C95.6997,39.243158 95.7907,37.857158 95.4027,36.590158 C94.2557,32.421158 93.5977,27.698158 90.8327,24.255158 C90.9137,24.313158 90.9917,24.375158 91.0707,24.438158 C89.8697,23.355158 84.2817,30.525158 83.1097,31.618158 C82.5147,32.408158 81.0717,33.613158 80.3197,32.368158 C79.6677,30.195158 81.3477,28.095158 82.3167,26.251158 C89.5567,14.725158 95.8437,19.217158 99.2127,30.261158 C101.3807,26.241158 104.4317,20.308158 109.8637,21.301158 C115.4147,22.646158 116.2097,32.890158 117.2577,37.641158 C118.0187,42.371158 111.1547,43.752158 110.0587,39.032158" id="Fill-21" fill="#505050"></path>
            <path d="M125.5018,57.308358 C123.5748,56.810358 123.8578,47.022358 123.5248,44.874358 C123.3258,36.360358 121.6358,27.956358 121.6938,19.437358 C121.8118,16.753358 121.2348,12.273358 124.9118,11.956358 C127.9408,11.818358 128.4338,14.975358 128.5998,17.331358 C128.6858,23.057358 128.1828,29.402358 128.1308,34.945358 C127.9158,38.341358 129.3568,57.131358 125.5018,57.308358" id="Fill-23" fill="#505050"></path>
            <path d="M119.3296,37.813358 C118.1126,33.109358 122.5396,32.708358 125.5716,30.990358 C127.7496,29.500358 132.8226,27.999358 131.4716,24.576358 C128.6656,24.664358 126.7336,27.422358 125.1906,29.478358 C125.2076,29.729358 124.9056,29.953358 124.6796,29.804358 C121.7526,29.279358 123.2246,24.808358 123.9816,22.965358 C125.1076,19.788358 127.9836,17.314358 131.3996,17.071358 C136.8806,16.330358 141.0786,21.898358 140.3646,27.051358 C140.0136,30.641358 137.6776,33.922358 134.8886,36.078358 C132.6496,37.899358 129.8906,38.705358 127.1616,39.461358 C124.2246,40.677358 120.8086,41.537358 119.3296,37.813358" id="Fill-25" fill="#505050"></path>
            <path d="M153.8978,42.640858 C137.4208,40.033858 146.6968,15.768858 159.8608,15.602858 C162.0578,12.535858 164.7798,14.609858 166.9088,16.485858 C168.2388,17.492858 169.6398,18.395858 170.7568,19.655858 C179.9598,30.567858 165.4668,44.006858 153.8978,42.640858 M154.7898,34.823858 C158.5568,34.474858 166.3878,31.145858 165.7298,26.535858 C165.0618,27.115858 163.9298,26.658858 163.7958,25.839858 C160.5218,15.775858 147.6958,33.624858 154.7898,34.823858" id="Fill-27" fill="#505050"></path>
            <path d="M185.6462,43.496758 C183.2622,43.196758 176.6782,42.256758 176.7282,39.191758 C176.9032,38.586758 177.6672,38.469758 178.1502,38.527758 C180.9092,38.442758 192.7542,38.034758 192.3862,34.245758 C189.9492,30.975758 185.3622,29.675758 183.4082,25.906758 C180.3352,19.033758 188.2322,13.534758 193.6582,11.070758 C197.6512,9.73975805 200.3642,15.231758 196.8652,17.566758 C194.1532,19.276758 190.0382,19.883758 188.6482,23.099758 C189.0152,25.047758 191.5252,25.571758 193.0252,26.468758 C195.4752,27.679758 197.9952,29.297758 199.0252,31.949758 C201.8412,39.853758 192.4282,44.809758 185.6462,43.496758" id="Fill-29" fill="#505050"></path>
            <path d="M221.0387,46.501658 C218.6887,40.576658 218.9377,34.214658 218.1677,28.042658 C217.2757,19.955658 214.7717,11.921658 215.0747,3.75965805 C215.4127,-0.623341954 221.7247,-1.45134195 223.0977,2.75565805 C223.9467,5.39765805 224.0687,8.15765805 224.1477,10.907658 C224.6857,21.142658 225.0747,31.398658 224.0317,41.614658 C223.8787,43.388658 223.6407,45.556658 222.0327,46.632658 C221.8117,46.996658 221.1507,46.966658 221.0387,46.501658" id="Fill-31" fill="#505050"></path>
            <path d="M204.0412,24.895158 C200.6662,22.963158 211.8872,18.053158 213.4242,17.512158 C220.3742,15.098158 227.2762,12.084158 234.5652,10.895158 C238.7682,10.139158 240.3722,16.205158 236.3422,17.598158 C225.6022,19.970158 214.6422,22.059158 204.0412,24.895158" id="Fill-33" fill="#505050"></path>
            <path d="M253.7297,43.224958 C244.7117,41.652958 239.7647,31.057958 243.3777,22.876958 C245.1907,18.295958 248.7107,13.537958 253.9757,13.052958 C259.8917,12.551958 263.9897,18.531958 264.9597,23.759958 C265.3747,25.767958 265.1117,28.236958 263.1627,29.357958 C260.9197,30.647958 258.5537,31.311958 255.9757,31.326958 C253.0977,31.505958 249.9167,31.766958 247.2197,30.625958 C248.4917,36.230958 255.1097,36.224958 259.5947,34.929958 C261.9027,34.346958 263.9517,32.976958 266.2687,32.458958 C268.0807,32.158958 269.9127,32.861958 270.9527,34.408958 C275.3347,43.150958 259.1407,44.519958 253.7297,43.224958 M246.9697,27.258958 C250.2977,24.419958 254.9017,23.029958 259.2077,22.796958 C258.9617,20.733958 257.5017,19.054958 255.6137,18.266958 C250.9197,16.896958 247.3397,23.290958 246.9697,27.258958" id="Fill-35" fill="#505050"></path>
            <path d="M279.4923,42.234858 C278.6103,42.082858 278.1223,40.865858 277.8283,40.147858 C276.5953,36.929858 275.6093,33.615858 274.5933,30.323858 C273.2853,25.110858 270.9063,19.915858 271.1723,14.460858 C271.4113,11.520858 275.3203,10.475858 276.9693,12.944858 C279.5053,16.918858 279.3363,21.930858 280.0123,26.448858 C280.3563,31.492858 281.8363,36.751858 280.4923,41.733858 C280.4903,41.729858 280.4883,41.724858 280.4863,41.720858 C280.4193,42.147858 279.8973,42.460858 279.4923,42.234858" id="Fill-37" fill="#505050"></path>
            <path d="M277.0614,31.116558 C275.0094,30.136558 275.3374,27.371558 275.4484,25.468558 C275.8054,18.955558 279.4754,11.928558 286.2524,10.362558 C289.8214,9.50855805 294.6924,11.802558 293.7724,16.049558 C293.3034,18.268558 291.1944,19.854558 288.9284,19.671558 C285.6534,18.584558 284.8694,20.975558 283.2634,23.282558 C281.7994,25.270558 280.0794,31.782558 277.0614,31.116558" id="Fill-39" fill="#505050"></path>
        </g>
        <g id="Group" transform="translate(50.000000, 67.000000)">
            <g id="Group" transform="translate(26.000000, 12.000000)">
                <path d="M105.51816,224.5209 C99.7501602,221.8539 99.9011602,214.2199 99.2721602,208.7709 C98.6731602,199.6169 98.2141602,190.4289 98.0771602,181.2589 C97.0591602,133.0829 119.08916,92.5959 152.97516,59.6539 C155.55516,56.8349 158.64616,54.5719 161.49316,52.0559 C162.66216,50.4969 163.59916,48.6919 165.37416,47.7119 C168.95416,45.5369 174.01216,47.9419 174.47116,52.1419 C175.18516,57.0809 170.55016,58.6299 167.30016,60.8929 C160.10816,67.4959 151.98716,73.0019 145.37416,80.2589 C120.47016,104.4229 109.19216,129.4089 111.86216,164.3399 C113.21116,178.5109 113.19616,191.6759 114.05916,205.7289 C114.30916,209.0189 114.33916,212.4509 115.64316,215.5359 C115.58416,215.3699 115.52616,215.2029 115.46816,215.0359 C115.46716,215.0319 115.46516,215.0289 115.46416,215.0249 C117.84716,220.9279 111.31216,227.1839 105.51816,224.5209" id="Fill-1" fill="#FFFFFF"></path>
                <g id="Group-5" transform="translate(99.813664, 0.000000)">
                    <mask id="mask-4" fill="white">
                        <use xlink:href="#path-3"></use>
                    </mask>
                    <g id="Clip-4"></g>
                    <path d="M48.3052967,121.957 C45.8342967,121.572 43.3672967,122.233 40.9222967,121.609 C33.3332967,120.068 36.7872967,109.183 43.9092967,112.192 C45.0532967,112.48 46.0702967,113.051 47.0862967,113.624 C49.7212967,114.18 52.4042967,114.611 55.0972967,114.194 C61.1892967,112.8 66.1632967,108.36 70.2822967,103.863 C78.1932967,95.769 85.2912967,86.093 87.4162967,74.754 C89.3492967,65.409 88.2552967,55.791 88.5632967,46.32 C88.6322967,38.367 89.3862967,30.448 90.2392967,22.548 C74.8542967,44.213 43.1352967,37.081 24.3852967,53.723 C20.5462967,57.235 16.6812967,61.079 14.8052967,66.032 C12.6572967,74.11 14.6022967,82.652 17.0532967,90.445 C18.1422967,93.436 19.5252967,96.293 20.8212967,99.203 C22.1952967,102.598 24.7042967,106.393 23.1842967,110.133 C22.5082967,111.613 21.0822967,112.91 19.3912967,113.043 C14.4962967,113.422 11.2702967,108.785 8.85229667,105.195 C6.64329667,101.964 4.66429667,98.566 3.30129667,94.886 C0.632296669,88.239 -0.564703331,80.946 0.254296669,73.808 C1.11729667,67.627 2.63429667,61.336 6.21929667,56.121 C10.9062967,49.532 17.2432967,44.092 24.5742967,40.656 C33.7012967,36.56 43.9352967,36.464 53.6242967,34.798 C63.4632967,32.255 74.3182967,30.807 82.3632967,24.112 C85.4232967,21.54 86.9392967,17.755 88.4772967,14.176 C89.8202967,11.283 91.1802967,8.316 90.7702967,5.054 C90.4132967,-1.142 98.8762967,-1.963 98.7492967,4.391 C96.4722967,21.43 99.5892967,38.585 99.0012967,55.699 C98.8942967,63.341 97.8682967,70.942 97.0632967,78.531 C95.1372967,90.13 91.1372967,102.346 81.5162967,109.808 C77.8072967,113.341 72.9232967,115.038 68.4302967,117.328 C64.7332967,119.168 60.7252967,119.987 56.6882967,120.641 C53.9612967,121.431 51.1382967,121.823 48.3052967,121.957" id="Fill-3" fill="#FFFFFF" mask="url(#mask-4)"></path>
                </g>
                <path d="M104.26776,172.7175 C101.54776,168.4215 100.12076,163.5605 97.9637602,158.9955 C95.3627602,153.8985 92.2787602,149.0825 89.0987602,144.3325 C89.1247602,144.3715 89.1507602,144.4095 89.1777602,144.4485 C78.5157602,127.2995 62.1907602,115.0505 47.1907602,101.9515 C46.1667602,101.7255 46.4767602,100.3395 47.2127602,99.8965 C51.2297602,97.8635 56.4627602,100.9635 60.1377602,102.7175 C69.1507602,107.1195 77.3767602,113.6055 83.7057602,121.2705 C94.3627602,134.1575 102.04076,149.1345 108.89676,164.2915 C109.79876,167.3485 112.57776,172.2515 108.62276,174.1665 C107.06976,174.8265 105.09976,174.2275 104.26776,172.7175" id="Fill-6" fill="#FFFFFF"></path>
                <path d="M54.7269602,149.1749 C48.6529602,148.8259 43.0039602,146.5569 37.9849602,143.1909 C31.1519602,138.9929 25.8719602,132.7269 22.3929602,125.5459 C18.2929602,117.5949 16.8129602,108.7169 14.1449602,100.2619 C12.4369602,95.1609 9.48696023,90.3119 5.28796023,86.9899 C3.09696023,85.2919 -0.429039771,84.7859 0.0429602295,81.2419 C0.462960229,78.2709 3.22496023,77.8689 5.72596023,77.7209 C8.53596023,76.9549 11.2979602,76.0169 14.2029602,75.5579 C18.7109602,74.9099 23.3229602,74.6819 27.8609602,75.1129 C31.3309602,75.2899 34.8289602,74.9399 38.2699602,75.5619 C44.0799602,76.4459 49.5789602,78.3609 54.9069602,80.7929 C60.4229602,82.7589 64.9589602,86.6179 69.1329602,90.6209 C76.2299602,97.8289 80.6309602,107.3399 83.3759602,116.9719 C84.0589602,120.3649 85.1919602,124.1499 83.8709602,127.5109 C81.8449602,131.2489 78.8299602,128.8249 77.7379602,125.8159 C72.9129602,115.0669 68.9219602,103.3639 59.9559602,95.2309 C51.7669602,88.2439 41.0639602,85.0019 30.4949602,83.9899 C25.8729602,83.8859 21.2449602,84.2549 16.6259602,84.4439 C27.9089602,96.2479 26.3689602,114.9869 37.3349602,127.0399 C39.0539602,128.9249 40.7629602,130.8449 42.8559602,132.3239 C45.4449602,134.0609 48.4859602,134.8199 51.4139602,135.7729 C54.5879602,136.8459 57.8969602,137.4669 61.2009602,137.9789 C63.2759602,138.1159 65.1819602,137.1699 67.0389602,136.3709 C72.3079602,134.1359 76.5539602,141.3889 72.0079602,144.8819 C67.1559602,148.7869 60.8049602,149.9259 54.7269602,149.1749" id="Fill-8" fill="#FFFFFF"></path>
            </g>
        </g>
    </g>
</svg>