<?xml version="1.0" encoding="UTF-8"?>
<svg width="350px" height="450px" viewBox="0 0 350 450" version="1.1" xmlns="http://www.w3.org/2000/svg" xmlns:xlink="http://www.w3.org/1999/xlink">
    <title>5R-réutiliser</title>
    <g id="5R-réutiliser" stroke="none" stroke-width="1" fill="none" fill-rule="evenodd">
        <g id="TxtRéutiliser" transform="translate(41.000000, 315.405219)" fill="#505050">
            <path d="M8.2410518,45.6600131 C7.6490518,37.2200131 7.1780518,28.7810131 6.7250518,20.3280131 C6.5220518,16.8630131 6.3610518,13.3890131 6.1510518,9.92201306 C6.2080518,8.70001306 5.6090518,7.26801306 6.2800518,6.17501306 C8.9240518,4.22101306 9.2410518,10.7090131 9.6820518,12.2030131 C10.7060518,18.4120131 11.5970518,24.6390131 12.6310518,30.8470131 C13.5250518,35.6290131 13.8720518,40.4910131 13.8770518,45.3510131 C13.8890518,46.1010131 13.6780518,46.8040131 13.1780518,47.3750131 C11.6340518,49.2450131 8.2740518,48.1190131 8.2410518,45.6600131" id="Fill-13"></path>
            <path d="M39.1692518,47.5149131 C30.6912518,45.1889131 23.3192518,40.1699131 15.3392518,36.6229131 C11.5112518,34.6629131 2.9342518,34.1859131 4.4542518,28.1089131 C5.3212518,25.5599131 8.3412518,25.1369131 10.1862518,23.5039131 C12.5652518,21.7519131 26.3082518,9.93591306 23.1792518,7.37391306 C16.5972518,5.96191306 7.5612518,10.6359131 3.9342518,16.1669131 C3.7312518,16.5589131 3.5142518,17.0239131 3.6402518,17.4699131 C4.3052518,18.1499131 4.1602518,19.3279131 3.4782518,19.9289131 C2.6962518,20.6169131 1.4622518,20.4409131 0.880251798,19.5889131 C-3.0057482,13.4059131 6.9252518,4.69491306 12.1532518,2.49991306 C18.7682518,-0.826086938 30.5962518,-2.31208694 31.4152518,7.72991306 C31.0092518,16.1999131 22.4372518,22.4899131 16.6872518,27.8379131 C20.3552518,28.9329131 23.8122518,30.5959131 27.2592518,32.2449131 C32.3332518,34.7649131 37.7772518,36.5689131 42.4382518,39.8309131 C47.0012518,42.3169131 44.0692518,49.1309131 39.1692518,47.5149131" id="Fill-15"></path>
            <path d="M67.0303518,48.8059131 C63.4843518,47.6059131 60.0663518,46.0179131 56.7453518,44.2899131 C51.7943518,42.1119131 46.5773518,37.7779131 48.0183518,31.7589131 C49.4903518,25.9989131 56.6913518,18.8109131 63.0223518,19.8249131 C73.4313518,22.3419131 68.1413518,35.4449131 59.5313518,36.1909131 C62.9213518,37.8179131 66.3053518,39.4989131 69.8813518,40.6929131 C75.1773518,42.7419131 72.4213518,50.4959131 67.0303518,48.8059131 M55.6653518,31.6749131 C57.5423518,30.6919131 59.5393518,29.8899131 61.2763518,28.6649131 C62.8703518,27.6249131 63.9153518,24.9289131 60.9393518,25.9719131 C58.5813518,27.1329131 56.7993518,29.3439131 55.6653518,31.6749131" id="Fill-17"></path>
            <path d="M47.7540518,19.3193131 C46.6340518,15.7913131 59.6760518,7.80731306 62.5510518,5.66331306 C65.5170518,3.77631306 68.4250518,8.09131306 65.5430518,10.1243131 C60.7880518,13.3683131 56.0890518,16.7123131 50.9910518,19.4123131 C49.9540518,20.1523131 48.4230518,20.9353131 47.7540518,19.3193131" id="Fill-19"></path>
            <path d="M85.5884518,44.2620131 C79.3594518,42.0610131 78.7584518,34.1490131 80.0374518,28.5900131 C80.4314518,27.2050131 80.7174518,25.5200131 81.9404518,24.6130131 C82.8394518,24.0250131 84.1324518,24.5280131 84.3174518,25.6070131 C84.2234518,29.0030131 83.7354518,32.5740131 85.1684518,35.8080131 C86.7974518,39.9610131 93.1524518,37.6960131 94.2704518,34.2360131 C94.9174518,32.5950131 95.4314518,30.9060131 95.6904518,29.1610131 C95.7794518,28.4460131 95.8484518,27.7300131 95.9164518,27.0160131 C96.1044518,24.9960131 98.0144518,23.5160131 100.021452,23.9450131 C103.827452,24.9880131 102.711452,28.5730131 101.502452,31.2660131 C100.789452,33.1580131 100.246452,35.0990131 99.6394518,37.0280131 C97.7654518,42.5400131 91.1874518,46.0690131 85.5884518,44.2620131" id="Fill-21"></path>
            <path d="M118.245552,50.9823131 C112.507552,50.2343131 114.960552,42.9933131 114.663552,39.0333131 C115.489552,28.5033131 115.689552,17.7203131 118.753552,7.54531306 C121.092552,0.651313062 124.706552,7.24331306 121.904552,7.17231306 C121.357552,16.5133131 122.122552,25.8563131 122.616552,35.1853131 C122.741552,37.8693131 122.776552,40.5403131 122.737552,43.2283131 C122.718552,44.5523131 122.698552,45.8763131 122.671552,47.2013131 C122.591552,49.4013131 120.414552,51.1983131 118.245552,50.9823131" id="Fill-23"></path>
            <path d="M106.289452,28.8258131 C104.052452,23.1678131 117.852452,21.2218131 121.543452,20.1738131 C126.723452,19.0718131 131.906452,17.9818131 137.090452,16.8928131 C142.001452,16.0888131 143.411452,23.2128131 138.527452,24.3378131 C130.802452,25.9118131 123.137452,27.8318131 115.340452,29.0448131 C113.428452,29.3418131 111.513452,29.6628131 109.613452,30.0408131 C108.388452,30.2938131 106.879452,30.1318131 106.289452,28.8258131" id="Fill-25"></path>
            <path d="M147.098052,18.6436131 C147.071052,18.6326131 147.045052,18.6216131 147.018052,18.6106131 C145.623052,19.1106131 144.067052,17.9556131 144.211052,16.4686131 C144.443052,13.5686131 149.160052,14.2026131 148.476052,17.0626131 C149.704052,17.9516131 148.159052,19.7216131 147.098052,18.6436131" id="Fill-27"></path>
            <path d="M144.101252,42.4288131 C143.582252,37.0588131 143.064252,31.4148131 145.116252,26.2838131 C145.506252,25.3188131 146.552252,24.5298131 147.620252,24.9128131 C148.827252,25.3198131 149.124252,26.7338131 149.335252,27.8388131 C150.380252,32.6948131 150.522252,37.3368131 150.527252,42.0768131 C150.601252,43.8268131 149.257252,45.3668131 147.488252,45.4638131 C145.742252,45.5658131 144.210252,44.1778131 144.101252,42.4288131" id="Fill-29"></path>
            <path d="M158.865952,50.3637131 C158.154952,49.6447131 157.969952,48.5527131 157.763952,47.5977131 C157.040952,43.8937131 156.647952,40.1267131 156.326952,36.3717131 C155.732952,27.1017131 155.780952,17.7017131 157.029952,8.49271306 C157.256952,7.15671306 158.529952,6.15271306 159.849952,6.07871306 C161.349952,5.99271306 162.728952,7.06671306 163.009952,8.54771306 C163.927952,13.3247131 163.732952,18.2387131 163.588952,23.0747131 C163.439952,27.9537131 163.013952,32.8127131 162.756952,37.6877131 C162.457952,40.0697131 163.141952,52.3557131 158.865952,50.3637131" id="Fill-31"></path>
            <path d="M172.533152,53.9165131 C170.559152,53.6485131 170.428152,44.6535131 170.072152,42.6785131 C169.855152,38.2605131 169.395152,33.7625131 170.115152,29.3815131 C170.439152,27.7715131 171.881152,26.5645131 173.510152,26.474512 C178.526152,26.4715131 177.642152,32.7445131 177.283152,36.1705131 C176.727152,39.8005131 175.900152,52.5735131 172.533152,53.9165131" id="Fill-33"></path>
            <path d="M172.518252,17.4030131 C170.035252,13.2340131 176.814252,10.3610131 178.108252,15.0000131 C178.836252,18.2550131 174.381252,20.2170131 172.518252,17.4030131" id="Fill-35"></path>
            <path d="M189.786252,52.0151131 C185.603252,51.7931131 184.815252,45.5681131 188.825252,44.3311131 C191.585252,43.5771131 194.372252,42.7501131 196.856252,41.3001131 C193.888252,38.5621131 188.398252,36.4401131 189.239252,31.5031131 C190.843252,25.6321131 200.247252,21.8741131 205.657252,24.3471131 C211.239252,27.8741131 208.018252,28.5841131 203.375252,28.3281131 C200.068252,28.2081131 196.530252,29.1251131 194.501252,31.9161131 C198.471252,35.1401131 205.855252,38.2151131 202.806252,44.5931131 C200.552252,48.4101131 194.278252,52.2821131 189.786252,52.0151131" id="Fill-37"></path>
            <path d="M220.617052,47.6589131 C213.431052,44.9789131 210.412052,37.0359131 214.726052,30.5019131 C217.486052,25.9839131 222.813052,21.7229131 228.386052,22.7759131 C234.140052,23.9529131 235.238052,30.4659131 230.980052,34.1349131 C228.012052,37.0659131 223.687052,37.9319131 219.672052,37.1839131 C219.758052,39.0559131 221.716052,40.2589131 223.314052,40.8269131 C225.334052,41.3369131 227.385052,40.6389131 229.351052,40.1809131 C234.637052,38.7729131 239.841052,37.0659131 244.898052,34.9719131 C247.292052,33.7189131 250.183052,36.2519131 249.210052,38.7879131 C248.953052,39.5099131 248.378052,40.2369131 247.656052,40.5419131 C243.582052,42.2599131 239.394052,43.6669131 235.242052,45.1859131 C230.600052,46.8619131 225.606052,49.3899131 220.617052,47.6589131 M221.659052,31.1839131 C223.917052,30.3519131 226.949052,30.2309131 228.405052,28.0959131 C225.904052,26.6249131 223.064052,29.2349131 221.659052,31.1839131" id="Fill-39"></path>
            <path d="M249.859952,46.0205131 C249.015952,45.4585131 248.644952,44.4615131 248.367952,43.5325131 C247.574952,40.6625131 247.552952,37.6555131 247.203952,34.7115131 C246.774952,30.6025131 246.145952,26.4975131 246.316952,22.3565131 C246.143952,17.5875131 253.040952,16.7265131 254.015952,21.4075131 C254.437952,23.4865131 254.911952,25.5715131 254.840952,27.7085131 C254.636952,30.9655131 255.779952,48.6725131 249.859952,46.0205131" id="Fill-41"></path>
            <path d="M252.462152,34.3214131 C251.653152,32.4414131 252.777152,30.4494131 253.466152,28.7044131 C255.149152,24.9714131 258.465152,20.9314131 262.704152,20.2904131 C265.162152,20.0494131 267.495152,22.4374131 266.911152,24.9034131 C266.447152,27.3804131 263.660152,27.6034131 262.068152,29.0994131 C260.261152,30.5274131 258.612152,32.1354131 256.970152,33.7434131 C255.891152,35.0504131 253.534152,36.3174131 252.462152,34.3214131" id="Fill-43"></path>
        </g>
        <g id="Group" transform="translate(50.000000, 48.000000)" fill="#FFFFFF">
            <g id="Group" transform="translate(54.000000, 16.000000)">
                <path d="M29.8493279,208.259532 C28.3083279,206.671532 27.5573279,204.606532 26.8703279,202.546532 C24.3773279,197.069532 23.2793279,191.269532 21.1773279,185.685532 C17.4513279,174.184532 13.3773279,162.812532 9.75932791,151.275532 C6.19432791,138.450532 4.14632791,125.214532 2.31032791,112.044532 C-3.67467209,79.7425317 2.26632791,45.8595317 16.6853279,16.5175317 C18.3103279,12.9545317 20.1113279,9.48953172 22.2473279,6.20853172 C23.5653279,4.26253172 24.8623279,2.09853172 26.9823279,0.935531724 C29.6253279,-0.645468276 33.3753279,-0.295468276 35.0013279,2.54453172 C36.9083279,5.71653172 34.9473279,9.33353172 33.6693279,12.3455317 C32.4743279,15.1615317 31.2283279,17.9585317 30.0763279,20.7945317 C27.7363279,26.7365317 25.2303279,32.6175317 23.0313279,38.6145317 C15.2593279,60.8085317 13.8503279,84.4905317 14.6343279,107.814532 C15.1673279,119.306532 15.3543279,130.879532 16.9933279,142.278532 C19.3013279,157.051532 24.1193279,171.368532 30.6183279,184.802532 C32.5273279,188.968532 35.5683279,192.395532 37.8873279,196.308532 C39.1763279,197.973532 40.6263279,199.572532 41.1933279,201.653532 C43.0833279,208.197532 34.6593279,213.186532 29.8493279,208.259532" id="Fill-1"></path>
                <path d="M35.8394279,209.648132 C33.6534279,208.126132 33.1794279,205.135132 32.5074279,202.722132 C31.0444279,196.342132 32.5214279,189.878132 33.8164279,183.608132 C35.0674279,178.504132 34.7134279,171.751132 39.5544279,168.523132 C44.5224279,165.422132 51.3164279,169.978132 50.3784279,175.753132 C50.1204279,177.667132 49.3784279,179.492132 48.7614279,181.312132 C47.2124279,185.649132 45.7604279,190.027132 45.0624279,194.589132 C43.8774279,198.840132 42.5794279,212.256132 35.8394279,209.648132" id="Fill-3"></path>
                <path d="M27.2312279,210.056532 C21.3362279,209.866532 15.4192279,209.869532 9.54422791,209.384532 C1.98522791,208.666532 -0.511772092,198.756532 6.70822791,195.423532 C9.71122791,194.004532 13.0562279,194.978532 16.2192279,195.122532 C22.1642279,195.752532 28.4222279,195.914532 33.8642279,198.638532 C36.9302279,200.240532 39.2622279,203.677532 37.4692279,207.099532 C35.4272279,210.593532 30.7072279,210.140532 27.2312279,210.056532" id="Fill-5"></path>
                <path d="M87.3303279,216.645632 C84.2793279,214.586632 83.1313279,210.383632 84.8383279,207.086632 C86.5543279,204.104632 88.6113279,201.308632 90.2983279,198.299632 C95.4673279,189.448632 99.9973279,180.234632 104.002328,170.801632 C106.016328,165.922632 108.617328,160.290632 110.600328,155.540632 C113.459328,148.221632 115.424328,140.527632 116.709328,132.780632 C117.984328,121.540632 117.256328,110.152632 116.221328,98.9186317 C114.969328,84.4786317 112.542328,70.8206317 109.176328,56.8246317 C106.079328,45.2766317 102.066328,33.9896317 98.1233279,22.7116317 C97.0573279,19.4426317 95.6973279,16.2866317 94.5133279,13.0596317 C93.9743279,11.5366317 93.4673279,9.75463172 94.3263279,8.27463172 C96.7803279,5.59463172 98.3453279,10.2826317 99.4013279,11.9796317 C103.481328,18.4796317 106.359328,25.5786317 109.084328,32.7236317 C114.750328,48.0986317 118.715328,64.1126317 121.971328,80.1576317 C124.729328,94.8136317 127.423328,109.580632 127.287328,124.547632 C127.196328,135.995632 125.160328,147.284632 122.342328,158.348632 C119.891328,169.073632 116.599328,179.625632 111.810328,189.551632 C108.222328,197.103632 104.314328,204.246632 99.9473279,211.231632 C99.0573279,212.641632 98.1853279,214.102632 97.1313279,215.399632 C94.7883279,218.268632 90.3213279,218.670632 87.3303279,216.645632" id="Fill-7"></path>
                <path d="M87.0691279,59.4017317 C81.4411279,58.2467317 80.8431279,52.0777317 82.0131279,47.3907317 C82.8291279,40.3527317 84.1581279,33.3727317 85.7251279,26.4647317 C86.6001279,22.6827317 87.5881279,18.9057317 88.7641279,15.2067317 C89.6801279,12.7287317 90.2521279,9.83373172 92.1781279,7.92173172 C95.3741279,5.40473172 98.1851279,8.42273172 98.9671279,11.5897317 C100.982128,17.6837317 99.7531279,24.2117317 99.0411279,30.4257317 C98.2561279,36.3657317 97.5971279,42.3317317 96.5681279,48.2337317 C95.7431279,53.9727317 94.4681279,60.4687317 87.0691279,59.4017317" id="Fill-9"></path>
                <path d="M134.067628,34.1215317 C130.033628,33.3115317 126.953628,30.4375317 123.239628,28.8795317 C118.404628,26.6425317 113.578628,24.3915317 108.934628,21.7745317 C105.777628,19.8785317 86.9196279,11.7395317 90.8336279,7.32853172 C91.8096279,6.32853172 93.1696279,6.19153172 94.4976279,6.28153172 C103.976628,8.11453172 113.161628,11.4765317 122.216628,14.7965317 C127.514628,17.3635317 133.169628,19.0475317 138.500628,21.4925317 C145.469628,25.1435317 141.726628,35.6395317 134.067628,34.1215317" id="Fill-11"></path>
            </g>
        </g>
    </g>
</svg>