<?xml version="1.0" encoding="UTF-8"?>
<svg width="350px" height="450px" viewBox="0 0 350 450" version="1.1" xmlns="http://www.w3.org/2000/svg" xmlns:xlink="http://www.w3.org/1999/xlink">
    <title>5R-refuser</title>
    <defs>
        <polygon id="path-1" points="0 0 24.8718738 0 24.8718738 29.0986484 0 29.0986484"></polygon>
    </defs>
    <g id="5R-refuser" stroke="none" stroke-width="1" fill="none" fill-rule="evenodd">
        <g id="txtRefuser" transform="translate(65.670455, 316.940618)">
            <path d="M3.14277926,41.36379 C2.61177926,40.89479 2.36177926,40.28179 2.28377926,39.59379 C2.09577926,37.92279 1.91977926,36.24679 1.74477926,34.57079 C1.33377926,31.21879 1.15577926,27.84479 0.978779256,24.47679 C1.07477926,21.07379 -1.38222074,8.77779004 1.14677926,7.10979004 C2.72677926,6.49079004 2.94977926,8.62979004 3.14677926,9.69979004 C5.23177926,19.46679 6.38077926,29.38779 7.36177926,39.31679 C7.59977926,41.48479 4.69877926,42.85479 3.14277926,41.36379" id="Fill-5" fill="#505050"></path>
            <path d="M26.7195793,39.45649 C23.3035793,37.46449 20.4905793,34.69349 17.4625793,32.19049 C14.7575793,29.99049 10.6065793,28.23149 10.1565793,24.36249 C10.0425793,23.02049 10.6945793,21.74549 11.5435793,20.74649 C13.6025793,17.88249 15.3725793,14.59049 16.0035793,11.09749 C16.0575793,9.95849004 14.4765793,10.10949 13.6965793,9.87849004 C9.88857926,9.32649004 5.81157926,10.97549 3.10057926,13.62649 C3.13457926,13.91949 2.94257926,14.23549 2.57857926,14.18749 C2.57157926,14.18649 2.56457926,14.18549 2.55757926,14.18449 C1.11957926,14.77749 0.604579256,12.73049 1.07857926,11.70249 C2.04657926,8.94649004 4.46457926,6.98649004 6.92257926,5.56549004 C11.9545793,2.48149004 21.3995793,2.17749004 23.1295793,9.15549004 C24.1415793,14.40249 20.0745793,18.84149 17.7845793,23.20249 C22.9205793,25.33849 27.1835793,28.92849 31.8135793,31.92549 C36.6745793,35.36849 31.7865793,42.69549 26.7195793,39.45649" id="Fill-7" fill="#505050"></path>
            <path d="M65.4508793,43.32769 C58.5618793,40.97469 45.4028793,38.30069 46.3208793,28.88169 C44.9828793,28.25969 42.8748793,27.76069 42.6108793,26.07369 C42.5828793,25.46169 42.9958793,24.87269 43.6008793,24.73269 C44.9008793,24.54169 46.1948793,25.20069 47.4968793,25.29569 C49.5118793,21.24169 54.0778793,16.00369 59.1308793,18.03469 C62.4258793,19.28769 63.0648793,23.51469 60.9238793,26.10869 C58.7938793,29.17469 54.8468793,30.47569 51.2338793,30.06269 C52.3638793,32.34069 55.2718793,32.67569 57.3808793,33.65569 C60.2618793,34.79969 63.1588793,35.92769 66.1338793,36.80569 C68.0848793,37.05569 69.7748793,38.77769 69.2948793,40.82769 C68.9428793,42.49869 67.1338793,43.77869 65.4508793,43.32769 M51.9608793,25.46569 C54.2448793,25.34769 56.8608793,24.78269 58.2988793,22.88569 C58.3148793,22.84969 58.3308793,22.81369 58.3458793,22.77769 C58.3668793,22.74269 58.3878793,22.70669 58.4078793,22.67069 C58.3888793,22.70469 58.3688793,22.73769 58.3608793,22.74269 C58.3558793,22.75369 58.3508793,22.76469 58.3458793,22.77569 C58.3238793,22.81269 58.3018793,22.84969 58.2788793,22.88569 C58.8098793,22.16569 57.9918793,21.48069 57.2828793,21.42269 C54.8998793,21.35269 52.9838793,23.50569 51.9608793,25.46569" id="Fill-9" fill="#505050"></path>
            <path d="M87.1384793,43.30989 C86.3024793,42.66589 86.0624793,41.53189 85.6854793,40.59089 C84.4654793,37.11089 83.7714793,33.47489 83.0524793,29.86489 C81.9094793,24.89889 81.4924793,19.81589 82.3224793,14.76289 C82.6414793,11.84889 83.2444793,8.87489004 85.0724793,6.50089004 C86.8444793,4.26189004 88.9194793,2.14089004 91.4824793,0.825890039 C94.4104793,-0.778109961 99.3004793,-0.185109961 99.5364793,3.84089004 C99.7154793,6.26989004 97.5894793,8.14789004 95.2574793,8.18289004 C92.9514793,9.34389004 90.2044793,10.90289 89.2314793,13.42389 C88.5904793,15.92189 88.4834793,18.51889 88.3864793,21.08489 C88.4844793,26.73489 89.2774793,32.36489 89.2124793,38.02489 C89.0464793,39.50189 89.7134793,44.29789 87.1384793,43.30989" id="Fill-11" fill="#505050"></path>
            <path d="M94.7216793,24.89499 C89.7496793,24.72299 84.8816793,23.58299 80.0726793,22.37899 C78.9856793,21.98299 76.3556793,21.85199 76.3346793,20.38699 C77.1006793,17.66899 82.7626793,17.67099 85.1316793,17.31699 C88.5236793,16.98699 91.9306793,16.84599 95.3306793,17.09399 C100.446679,17.63799 99.8706793,25.10999 94.7216793,24.89499" id="Fill-13" fill="#505050"></path>
            <path d="M115.094579,38.87409 C107.543579,35.66309 108.888579,24.79009 112.590579,19.08109 C114.038579,17.99609 115.069579,19.75409 114.993579,21.09709 C115.029579,24.18009 115.092579,27.27409 115.903579,30.27309 C116.173579,31.03609 116.331579,32.05609 117.137579,32.43109 C120.573579,33.64309 125.088579,27.98809 126.485579,25.26509 C127.770579,22.66609 131.808579,24.08709 131.207579,26.92109 C129.766579,34.31009 123.358579,42.42809 115.094579,38.87409" id="Fill-15" fill="#505050"></path>
            <path d="M135.510279,43.63709 C134.885279,41.78509 135.885279,39.42609 137.858279,38.87909 C138.406279,38.72709 138.936279,38.55109 139.464279,38.35009 C142.363279,36.81709 145.530279,35.55909 147.995279,33.36009 C148.393279,32.92109 148.829279,32.47409 149.024279,31.90409 C148.955279,31.48109 148.687279,31.11609 148.511279,30.72609 C146.787279,27.76409 144.023279,24.96309 144.088279,21.32009 C144.588279,14.60409 153.660279,14.77409 158.440279,16.52809 C159.307279,16.94609 160.272279,17.54709 160.596279,18.52009 C161.070279,19.56309 160.468279,21.14809 159.151279,20.94509 C156.473279,19.77009 153.150279,19.86509 150.526279,21.16109 C151.965279,23.39009 154.138279,25.02009 155.693279,27.16009 C158.412279,30.47509 157.704279,35.37509 154.834279,38.36009 C151.657279,41.89709 147.140279,44.05109 142.651279,45.39509 C139.951279,46.26509 136.775279,46.97209 135.510279,43.63709" id="Fill-17" fill="#505050"></path>
            <g id="Group-21" transform="translate(170.549055, 19.894242)">
                <mask id="mask-2" fill="white">
                    <use xlink:href="#path-1"></use>
                </mask>
                <g id="Clip-20"></g>
                <path d="M19.9357244,28.5381484 C16.9357244,26.4911484 14.1267244,24.1201484 11.4707244,21.6401484 C8.62472438,18.7361484 5.08572438,16.0271484 3.85172438,11.9961484 C2.36072438,11.7881484 -0.210275617,10.9921484 0.0137243826,9.10814841 C0.0997243826,8.84714841 0.408724383,8.66314841 0.677724383,8.73314841 C1.59672438,9.07014841 2.55272438,9.32814841 3.54072438,9.19814841 C3.86172438,5.03114841 7.05672438,-0.583851586 11.8577244,0.049148414 C18.0817244,2.21114841 13.9397244,10.2661484 9.13172438,11.4821484 C13.7817244,15.5421484 18.4987244,19.6281484 23.4827244,23.2921484 C26.8707244,25.7061484 23.4257244,30.7861484 19.9357244,28.5381484 M8.09772438,7.73114841 C9.71572438,6.96714841 11.7167244,5.75714841 12.0407244,3.93614841 C11.9827244,3.56514841 11.7907244,3.23214841 11.4327244,3.08114841 C11.4327244,3.08114841 11.4347244,3.11614841 11.4347244,3.11514841 C9.40172438,3.44814841 8.56472438,5.97314841 8.09772438,7.73114841" id="Fill-19" fill="#505050" mask="url(#mask-2)"></path>
            </g>
            <path d="M200.505879,41.83249 C197.752879,41.27449 196.851879,38.30649 197.095879,35.82449 C197.179879,32.94249 197.410879,30.06449 197.493879,27.18049 C197.632879,23.32249 197.710879,19.46049 197.791879,15.59849 C197.906879,14.45249 197.470879,13.04249 198.202879,12.06649 C201.764879,8.82449004 202.553879,22.32649 203.267879,24.30949 C205.529879,20.73249 209.400879,18.71149 213.532879,18.22749 C215.513879,17.86349 217.474879,19.16449 217.856879,21.14849 C218.239879,23.12549 216.907879,25.09049 214.935879,25.47349 C212.263879,25.99149 209.067879,26.35749 207.790879,29.13849 C206.616879,31.25849 205.766879,33.54549 205.414879,35.94649 C205.522879,37.03849 205.529879,38.13849 205.196879,39.19549 C205.192879,39.19249 205.188879,39.18849 205.185879,39.18549 C204.605879,41.05949 202.435879,42.28549 200.505879,41.83249" id="Fill-22" fill="#505050"></path>
        </g>
        <g id="Group" transform="translate(50.000000, 48.000000)" fill="#FFFFFF">
            <g id="Group" transform="translate(2.000000, 20.000000)">
                <path d="M123.572934,210.047208 C109.258934,209.670208 94.928934,207.301208 81.346934,202.738208 C69.965934,199.220208 58.962934,194.441208 49.271934,187.445208 C32.168934,175.345208 18.353934,158.540208 9.18193399,139.742208 C3.81293399,127.294208 -0.424066009,113.821208 0.0339339909,100.133208 C1.17293399,81.4882082 8.34293399,63.1642082 19.642934,48.3442082 C25.727934,41.1932082 32.939934,35.0152082 40.377934,29.3052082 C72.995934,3.92420817 115.796934,-5.16579183 156.174934,2.80020817 C166.644934,5.04020817 176.868934,8.50620817 186.750934,12.6132082 C195.902934,15.0652082 204.103934,20.0262082 211.713934,25.5472082 C217.270934,29.2292082 222.222934,33.7152082 226.982934,38.3602082 C231.141934,42.4692082 234.944934,46.9542082 237.041934,52.4882082 C240.035934,61.5372082 241.987934,70.9202082 243.400934,80.3402082 C245.193934,88.7092082 245.492934,97.3292082 245.126934,105.863208 C244.101934,129.866208 238.833934,148.884208 225.271934,168.961208 C214.702934,186.684208 197.352934,196.033208 178.162934,201.903208 C167.258934,205.176208 156.058934,207.620208 144.791934,209.238208 C137.747934,209.956208 130.651934,210.100208 123.572934,210.047208 M139.551934,196.048208 C150.805934,195.238208 161.835934,192.627208 172.519934,189.059208 C185.265934,184.487208 198.381934,179.133208 207.333934,168.526208 C217.641934,155.603208 224.658934,140.321208 228.802934,124.367208 C230.750934,118.185208 232.222934,111.903208 232.880934,105.445208 C233.836934,99.1712082 234.387934,92.8392082 233.940934,86.4962082 C233.529934,80.8042082 232.085934,75.2592082 230.845934,69.7072082 C229.540934,64.3482082 227.994934,59.0672082 225.631934,54.0712082 C221.038934,44.9332082 212.236934,38.7322082 203.345934,34.3902082 C198.976934,32.1922082 194.608934,29.9792082 189.983934,28.3692082 C184.110934,26.3512082 177.914934,25.4042082 172.166934,23.0112082 C169.213934,21.8382082 165.356934,21.7742082 163.409934,18.9732082 C127.385934,9.91220817 87.038934,15.1032082 56.282934,36.4422082 C35.169934,50.7062082 21.815934,64.2392082 15.780934,89.6522082 C13.133934,101.539208 15.227934,113.707208 19.342934,125.003208 C25.224934,141.619208 35.920934,156.420208 48.908934,168.239208 C71.937934,189.010208 109.074934,197.998208 139.551934,196.048208" id="Fill-1"></path>
                <path d="M51.086234,184.344608 C48.176234,181.434608 48.227234,176.657608 51.086234,173.738608 C52.969234,171.821608 54.797234,169.848608 56.645234,167.903608 C71.479234,152.379608 86.760234,137.296608 101.379234,121.567608 C127.352234,94.5856082 152.698234,66.6526082 182.808234,44.1486082 C188.114234,40.2146082 208.766234,23.2796082 214.031234,25.0986082 C218.233234,26.6776082 216.625234,31.1866082 214.051234,33.5826082 C206.618234,41.4116082 198.146234,48.0126082 190.153234,55.2006082 C178.791234,64.5586082 168.004234,74.5696082 157.504234,84.8796082 C131.501234,110.574608 107.181234,137.920608 81.422234,163.860608 C76.063234,169.418608 70.641234,174.910608 65.344234,180.524608 C64.133234,181.805608 62.926234,183.086608 61.695234,184.344608 C58.833234,187.261608 53.958234,187.212608 51.086234,184.344608" id="Fill-3"></path>
            </g>
        </g>
    </g>
</svg>