<?xml version="1.0" encoding="UTF-8"?>
<svg width="350px" height="450px" viewBox="0 0 350 450" version="1.1" xmlns="http://www.w3.org/2000/svg" xmlns:xlink="http://www.w3.org/1999/xlink">
    <title>5R-réduire</title>
    <defs>
        <polygon id="path-1" points="0 -2.84217094e-14 8.9748307 -2.84217094e-14 8.9748307 34.6616221 0 34.6616221"></polygon>
        <polygon id="path-3" points="1.42108547e-14 0 23.7088312 0 23.7088312 38.9216201 1.42108547e-14 38.9216201"></polygon>
    </defs>
    <g id="5R-réduire" stroke="none" stroke-width="1" fill="none" fill-rule="evenodd">
        <g id="TxtRéduire" transform="translate(73.000000, 321.245794)">
            <g id="Group-9" transform="translate(0.000000, 5.893336)">
                <mask id="mask-2" fill="white">
                    <use xlink:href="#path-1"></use>
                </mask>
                <g id="Clip-8"></g>
                <path d="M2.1002,31.8770242 C0.5122,25.2200242 2.1232,18.4490242 1.3212,11.7300242 C0.8642,8.4770242 0.2922,5.2410242 0.0372,1.9630242 C-0.0648,1.3870242 0.0232,0.802024197 0.5452,0.397024197 C2.4232,-0.985975803 3.7832,1.5640242 4.1272,3.1500242 C5.0692,6.1730242 6.0112,9.2140242 6.6072,12.3260242 C7.4372,16.8070242 7.8892,21.1820242 8.3932,25.2360242 C8.6152,27.0060242 8.7172,28.7870242 8.8772,30.0880242 C9.0512,31.1560242 9.0472,32.2420242 8.4042,33.1660242 C6.8292,35.6890242 2.5422,34.8600242 2.1002,31.8770242" id="Fill-7" fill="#505050" mask="url(#mask-2)"></path>
            </g>
            <path d="M33.8577,42.7160605 C28.3487,40.3460605 23.3017,37.1830605 18.3177,33.8840605 C15.6827,32.1410605 11.4877,31.0570605 11.0837,27.4150605 C10.8877,24.3330605 14.2897,23.4370605 16.1997,21.7680605 C18.6807,19.3680605 25.4577,14.1210605 24.6507,10.4820605 C24.6947,10.5280605 24.7397,10.5740605 24.7837,10.6190605 C24.7857,10.6310605 24.7867,10.6430605 24.7897,10.6570605 C24.7887,10.6450605 24.7867,10.6320605 24.7857,10.6200605 C24.8347,10.6700605 24.8827,10.7180605 24.9317,10.7670605 C24.8847,10.7130605 24.8347,10.6610605 24.7847,10.6100605 C24.7807,10.5770605 24.7767,10.5450605 24.7717,10.5130605 C24.7747,10.5450605 24.7787,10.5760605 24.7827,10.6080605 C21.2777,8.12906047 11.4247,12.7210605 8.4387,15.2900605 C7.1887,16.3290605 5.9137,17.4230605 5.1807,18.9030605 C5.1667,19.4980605 4.3107,19.7140605 3.9947,19.2050605 C0.8927,15.4330605 9.9187,8.46106047 13.0797,7.09106047 C17.0827,5.35706047 21.5947,3.28906047 26.0217,4.42006047 C29.5197,5.23706047 31.7077,8.86106047 30.9867,12.3490605 C29.7457,18.2330605 24.7887,22.3820605 20.8737,26.6160605 C26.6237,29.1340605 32.1637,32.1260605 37.7677,34.9510605 C42.8017,37.7000605 39.0457,45.1140605 33.8577,42.7160605" id="Fill-10" fill="#505050"></path>
            <path d="M67.9352,39.7332605 C62.7702,39.3872605 57.1602,40.0002605 52.4592,37.4552605 C45.6782,33.8032605 47.7652,24.5282605 52.5332,20.0382605 C57.7452,13.8192605 68.6102,14.7422605 68.1692,24.2482605 C67.2062,31.0682605 58.7842,29.8952605 53.6822,30.2842605 C55.3652,33.4982605 61.4202,32.1362605 64.5402,32.6552605 C69.5802,32.8372605 74.6442,33.0312605 79.6732,32.5372605 C82.6422,32.2302605 84.5152,36.1702605 82.4702,38.3072605 C81.8372,39.0262605 80.9902,39.3852605 80.0522,39.4792605 C76.0332,39.8932605 71.9702,39.8262605 67.9352,39.7332605 M54.6692,25.2212605 C57.2452,24.5802605 60.0462,24.7112605 62.5102,23.6542605 C63.6062,21.6242605 60.8952,20.5082605 59.2402,21.1582605 C57.1972,21.7522605 55.7602,23.4802605 54.6692,25.2212605" id="Fill-12" fill="#505050"></path>
            <path d="M50.1405,13.8340605 C47.1105,12.7780605 54.7905,6.84006047 55.9325,5.89406047 C58.4435,3.96906047 61.0485,2.17306047 63.6715,0.404060474 C64.7735,-0.337939526 66.3165,-0.0249395259 67.0545,1.07206047 C67.7965,2.17806047 67.4885,3.71706047 66.3865,4.45906047 C60.9895,7.96706047 56.1225,11.9050605 50.1405,13.8340605" id="Fill-14" fill="#505050"></path>
            <g id="Group-18" transform="translate(80.874793, 4.974140)">
                <mask id="mask-4" fill="white">
                    <use xlink:href="#path-3"></use>
                </mask>
                <g id="Clip-17"></g>
                <path d="M16.0459071,37.7824201 C15.0889071,36.9424201 14.6239071,35.8254201 14.4909071,34.5794201 C14.2819071,32.6504201 14.0619071,30.7224201 13.8589071,28.7914201 C11.0789071,34.2244201 2.75090714,35.6204201 0.326907139,29.1844201 C-1.67809286,23.1084201 5.94690714,14.9534201 12.0919071,17.8934201 C12.6369071,14.1574201 13.1049071,10.4354201 12.8079071,6.65742007 C12.7759071,5.03642007 12.6239071,3.09842007 13.4329071,1.63042007 C14.1989071,0.0914200733 16.3109071,-0.521579927 17.7159071,0.510420073 C17.7199071,0.506420073 17.7229071,0.501420073 17.7259071,0.497420073 C18.5839071,1.04142007 18.9319071,2.00242007 19.2019071,2.93842007 C19.7479071,4.78642007 20.1899071,6.67042007 20.4679071,8.57542007 C21.2389071,14.0044201 21.8139071,19.4544201 22.6399071,24.8764201 C23.0769071,27.9304201 23.3579071,31.0094201 23.6899071,34.0754201 C23.8149071,35.2434201 23.3079071,36.5094201 22.5459071,37.3724201 C20.9469071,39.2594201 17.8699071,39.4544201 16.0459071,37.7824201 M6.98990714,27.5524201 C9.27290714,27.1404201 10.4379071,24.5504201 11.1559071,22.5744201 C11.0909071,22.5124201 11.0239071,22.4524201 10.9539071,22.3944201 C10.8769071,22.3414201 10.7989071,22.2884201 10.7219071,22.2354201 C10.7619071,22.2584201 10.8019071,22.2814201 10.8419071,22.3044201 C10.8629071,22.3214201 10.8849071,22.3374201 10.9639071,22.3764201 C8.98190714,20.2694201 4.15790714,27.2164201 6.98990714,27.5524201" id="Fill-16" fill="#505050" mask="url(#mask-4)"></path>
            </g>
            <path d="M115.7248,40.4471605 C108.0798,38.4901605 107.9628,28.7121605 109.5718,22.4471605 C110.1458,20.7821605 110.2738,18.5551605 111.7438,17.4201605 C112.9138,16.8331605 113.3448,17.9301605 113.3658,18.9191605 C113.7148,21.5241605 113.8518,24.1511605 114.1178,26.7641605 C114.5188,28.7681605 114.7588,31.1531605 116.2768,32.6481605 C118.5238,33.2781605 119.9588,30.6251605 120.5368,28.8341605 C121.0248,25.9631605 121.6468,23.1161605 122.1388,20.2421605 C122.3578,18.7371605 122.3478,17.0421605 123.6268,15.9901605 C125.9568,13.7911605 130.1838,15.8611605 129.7908,19.0801605 C129.5218,21.4621605 129.2878,23.8611605 128.9198,26.2321605 C127.6378,32.7581605 124.0428,42.3071605 115.7248,40.4471605" id="Fill-19" fill="#505050"></path>
            <path d="M133.9125,10.6236605 L133.9125,10.6196605 C133.3515,10.1826605 133.1335,9.38666047 133.2655,8.69866047 C132.3845,6.40366047 135.9895,5.82566047 136.7775,7.76766047 C138.4085,9.63966047 135.7925,12.2586605 133.9125,10.6236605" id="Fill-21" fill="#505050"></path>
            <path d="M135.1394,39.366865 C132.8034,39.1828605 130.8934,37.0348605 131.1234,34.6678605 C131.4244,31.5738605 131.9754,28.5108605 132.5534,25.4608605 C133.3184,22.5518605 133.5014,18.7268605 136.2804,16.9758605 C137.5574,16.2928605 139.2214,16.9138605 139.8464,18.1828605 C140.7994,20.6718605 139.9684,24.3758605 140.1434,26.7688605 C139.7444,31.2838605 141.6914,39.3738605 135.1394,39.366865" id="Fill-23" fill="#505050"></path>
            <path d="M149.343,41.3032605 C149.017,40.8182605 148.81,40.2922605 148.711,39.7552605 C148.71,39.7572605 148.708,39.7582605 148.706,39.7602605 C148.484,38.2512605 148.876,36.7292605 149.274,35.2752605 C149.409,29.2932605 150.227,23.3632605 150.702,17.4052605 C150.671,16.2772605 151.64,14.8532605 152.82,15.7602605 C153.48,16.2872605 153.675,17.2992605 153.866,18.0762605 C154.515,20.7152605 154.902,23.4102605 155.333,26.0872605 C157.083,24.3522605 160.394,22.5632605 162.191,25.1972605 C163.031,26.4512605 162.843,28.2952605 161.656,29.2762605 C159.899,30.5242605 159.176,32.6002605 158.342,34.4972605 C157.278,36.6082605 157.733,39.2002605 156.437,41.2012605 C154.893,43.7212605 150.926,43.8262605 149.343,41.3032605" id="Fill-25" fill="#505050"></path>
            <path d="M186.3285,40.1499605 C182.5055,39.6849605 178.4525,40.0469605 174.8475,38.5209605 C170.3425,36.5449605 167.1335,30.9329605 169.1135,26.1569605 C171.3835,20.5579605 183.9535,14.2909605 188.3055,20.4459605 C191.7985,26.0769605 185.1125,32.3329605 179.4035,31.7159605 C186.1575,32.7709605 193.0135,33.5619605 199.8565,33.6949605 C201.0875,33.6649605 202.3555,33.7179605 203.3125,34.6029605 C205.7315,36.5739605 204.2655,40.9679605 201.1015,40.9779874 C196.1645,40.9819605 191.2425,40.5399605 186.3285,40.1499605 M177.4755,25.6929605 C179.6735,25.6089605 182.5635,25.2839605 183.6995,23.1299605 C181.4145,22.2979605 178.9825,24.5299605 177.2825,25.6829605 C177.3475,25.6869605 177.4115,25.6899605 177.4755,25.6929605" id="Fill-27" fill="#505050"></path>
        </g>
        <g id="Group" transform="translate(50.000000, 48.000000)" fill="#FFFFFF">
            <g id="Group" transform="translate(93.000000, 18.000000)">
                <path d="M30.5808523,211.802955 C30.1548523,210.634955 30.0028523,209.450955 29.9558523,208.642955 C29.5498523,203.169955 28.1898523,197.821955 27.5928523,192.372955 C26.8288523,186.240955 26.1678523,180.098955 25.2878523,173.982955 C22.7198523,156.604955 21.5608523,139.058955 21.2488523,121.497955 C20.8718523,103.348955 19.8508523,85.1979549 20.8038523,67.0529549 C21.0188523,53.1329549 20.5358523,39.2109549 21.4948523,25.3029549 C22.1298523,19.3019549 22.7308523,13.2949549 23.3188523,7.2949549 C24.3488523,-2.2230451 35.8188523,-2.6380451 36.6548523,7.2949549 C37.4838523,13.0489549 36.7298523,18.8349549 36.2018523,24.5769549 C35.9678523,28.7119549 35.9658523,32.8569549 35.8468523,36.9979549 C35.4438523,46.0249549 35.9398523,55.0469549 35.8228523,64.0719549 C35.3278523,77.7689549 35.0818523,91.4809549 35.3738523,105.181955 C36.0228523,131.857955 36.0278523,158.550955 34.7648523,185.200955 C34.7728523,192.048955 34.6818523,198.937955 35.8188523,205.712955 C36.4028523,208.449955 37.3288523,213.476955 33.2888523,213.569956 C32.1508523,213.569956 31.0168523,212.993955 30.5808523,211.802955" id="Fill-1"></path>
                <path d="M28.0838523,210.547455 C25.3158523,202.209455 45.0678523,188.860455 51.1388523,184.278455 C53.0168523,182.782455 55.2658523,181.850455 57.6468523,181.536455 C62.0808523,180.803455 65.8998523,185.730455 63.9978523,189.828455 C63.0558523,192.001455 61.5558523,193.897455 59.6228523,195.266455 C55.7468523,198.323455 51.7698523,201.245455 47.7408523,204.098455 C43.5808523,206.608455 31.7278523,217.410455 28.0838523,210.547455" id="Fill-3"></path>
                <path d="M29.2942523,212.718855 C21.1092523,210.792855 14.9722523,204.473855 8.50125227,199.491855 C6.39925227,197.680855 4.16525227,195.994855 2.13825227,194.101855 C-2.18574773,190.015855 0.460252269,182.096855 6.38825227,181.475855 C11.6242523,180.789855 14.8182523,185.901855 18.5362523,188.698855 C22.5752523,192.297855 26.6752523,195.924855 29.8842523,200.304855 C32.4672523,203.272855 37.4412523,215.025855 29.2942523,212.718855" id="Fill-5"></path>
            </g>
        </g>
    </g>
</svg>