<?xml version="1.0" encoding="UTF-8"?>
<svg width="350px" height="450px" viewBox="0 0 350 450" version="1.1" xmlns="http://www.w3.org/2000/svg" xmlns:xlink="http://www.w3.org/1999/xlink">
    <title>5R-recycler</title>
    <defs>
        <polygon id="path-1" points="0 0 17.1401182 0 17.1401182 19.2592801 0 19.2592801"></polygon>
    </defs>
    <g id="5R-recycler" stroke="none" stroke-width="1" fill="none" fill-rule="evenodd">
        <g id="TxtRecycler" transform="translate(53.000000, 296.014419)">
            <path d="M8.34949805,50.9568229 C5.84349805,47.6378229 5.36549805,43.2218229 4.51349805,39.2538229 C3.57549805,33.4668229 2.40549805,27.7108229 1.59149805,21.9058229 C1.01249805,16.0348229 -0.0585019502,10.1498229 0.00249804982,4.24982294 C0.14549805,0.828822943 4.42849805,-1.21117706 7.18549805,0.788822943 C9.61049805,2.45582294 9.44649805,5.75082294 9.75249805,8.37082294 C10.102498,12.5968229 10.343498,16.8288229 10.634498,21.0578229 C11.121498,27.4358229 11.970498,33.9558229 11.842498,40.3438229 C11.577498,43.7798229 12.223498,47.7248229 10.304498,50.7518229 C10.294498,51.8588229 8.86049805,51.7568229 8.34949805,50.9568229" id="Fill-19" fill="#505050"></path>
            <path d="M39.521998,47.5666229 C30.738998,45.9126229 23.160998,40.8826229 15.161998,37.1546229 C14.126998,36.7136229 13.060998,36.3916229 11.939998,36.2776229 C9.93599805,35.9296229 8.42799805,34.0316229 8.31899805,32.0506229 C8.19399805,28.2996229 11.214998,27.5116229 14.135998,26.5856229 C17.458998,25.1306229 20.506998,23.1376229 23.406998,20.9666229 C25.887998,18.7286229 31.577998,15.2396229 31.011998,11.5146229 C29.746998,9.21362294 26.677998,9.32162294 24.399998,9.52762294 C19.262998,10.1606229 14.447998,12.3506229 10.182998,15.2226229 C9.97399805,16.0906229 8.59699805,16.2496229 7.91599805,15.8396229 C5.72199805,13.7296229 9.36999805,10.7586229 10.790998,9.23462294 C16.369998,3.87462294 24.806998,0.290622943 32.517998,2.45762294 C38.614998,4.26762294 41.864998,11.5676229 39.041998,17.2816229 C36.121998,23.6686229 29.549998,27.1636229 24.010998,30.9956229 C30.019998,33.6046229 35.754998,36.9006229 41.857998,39.2386229 C46.895998,41.0236229 44.735998,48.6336229 39.521998,47.5666229" id="Fill-21" fill="#505050"></path>
            <path d="M64.180698,51.6720229 C61.146698,49.4510229 58.347698,46.9400229 55.629698,44.3520229 C53.580698,42.5040229 51.792698,40.3180229 50.934698,37.6600229 C48.740698,31.0080229 52.430698,23.8100229 57.227698,19.2580229 C65.147698,11.9280229 73.071698,20.6200229 70.246698,29.3750229 C69.019698,34.0140229 64.137698,36.4670229 59.574698,35.8520229 C62.208698,38.6650229 65.076698,41.2720229 68.060698,43.7100229 C69.329698,44.5980229 70.635698,45.6070229 70.895698,47.2340229 C71.740698,50.8760229 67.190698,53.9060229 64.180698,51.6720229 M58.791698,30.5670229 C60.217698,30.0620229 61.805698,29.7320229 62.935698,28.6640229 C64.058698,27.2810229 64.422698,25.0470229 63.519698,23.4650229 C60.986698,24.9710229 59.642698,27.8540229 58.791698,30.5670229" id="Fill-23" fill="#505050"></path>
            <path d="M90.217498,47.0404229 C80.493498,47.0034229 74.470498,38.5804229 79.467498,29.7444229 C82.523498,22.5194229 90.679498,16.3104229 98.634498,19.7394229 C102.443498,21.1494229 106.451498,27.0214229 103.291498,30.6224229 C102.822498,30.9464229 102.182498,30.8844229 101.759498,30.5214229 C99.433498,26.2414229 96.409498,23.2874229 91.228498,25.2934229 C88.261498,26.5334229 86.363498,29.3494229 85.123498,32.2024229 C81.994498,39.0084229 89.664498,39.4064229 94.292498,37.9384229 C97.289498,36.9534229 100.233498,35.8284229 103.182498,34.7114229 C105.807498,33.5944229 108.373498,32.3414229 110.877498,30.9704229 C112.674498,29.9894229 115.033498,30.8924229 115.912498,32.6694229 C118.166498,37.8554229 110.227498,39.2464229 107.068498,41.3764229 C101.879498,44.2584229 96.361498,47.3504229 90.217498,47.0404229" id="Fill-25" fill="#505050"></path>
            <path d="M93.345698,76.4889229 C92.817698,72.7379229 95.806698,72.1039229 98.626698,71.2119229 C101.517698,69.8369229 103.994698,67.7379229 106.608698,65.9189229 C114.485698,59.9659229 118.550698,50.6909229 123.120698,42.2259229 C115.073698,44.8349229 111.522698,37.0829229 111.794698,30.2539229 C111.794698,27.3519229 112.040698,24.4459229 112.470698,21.5749229 C112.848698,19.7149229 112.866698,17.5979229 113.911698,15.9649229 C114.925698,14.8849229 116.282698,15.9269229 116.337698,17.1879229 C116.638698,19.3239229 116.981698,21.4469229 117.450698,23.5509229 C118.359698,27.3769229 118.553698,31.5249229 120.312698,35.0759229 C124.384698,34.4079229 127.231698,30.7659229 130.118698,28.0949229 C131.516698,25.6969229 133.497698,19.7999229 136.833698,20.3209229 C138.943698,20.8399229 138.778698,22.9939229 137.923698,24.5629229 C136.919698,26.8599229 136.254698,29.2919229 135.384698,31.6409229 C132.382698,39.9999229 129.054698,48.2759229 124.962698,56.1679229 C120.494698,65.5399229 113.829698,73.9179229 103.861698,77.6979229 C100.471698,78.9769229 94.659698,81.7059229 93.345698,76.4889229" id="Fill-27" fill="#505050"></path>
            <path d="M154.807898,46.7969229 C143.186898,43.0689229 148.187898,29.6059229 154.603898,23.2809229 C156.099898,21.9489229 157.875898,20.9689229 159.686898,20.1289229 C161.430898,19.4839229 163.187898,17.9219229 165.127898,18.5079229 C167.441898,19.2299229 167.682898,22.7539229 165.447898,23.7459229 C162.701898,25.0929229 160.005898,26.3939229 157.700898,28.3609229 C155.882898,30.3319229 154.787898,32.8769229 153.932898,35.3899229 C152.809898,38.5249229 154.225898,40.7249229 157.509898,41.1419229 C161.740898,41.3389229 166.019898,39.6929229 169.432898,37.2619229 C170.049898,36.9219229 170.822898,37.1369229 171.279898,37.6289229 C172.451898,38.8869229 171.428898,40.7269229 170.596898,41.8639229 C166.981898,46.2459229 160.275898,48.2949229 154.807898,46.7969229" id="Fill-29" fill="#505050"></path>
            <path d="M180.824998,51.5519229 C180.351998,51.2239229 180.360998,50.6669229 180.224998,50.2249229 C178.943998,45.5419229 178.728998,40.6729229 178.524998,35.8469229 C178.000998,26.7489229 176.671998,17.6959229 177.787998,8.58992294 C178.203998,4.52892294 184.426998,4.80692294 184.393998,8.93992294 C184.356998,11.3269229 184.774998,13.6889229 184.777998,16.0759229 C184.856998,25.8479229 184.096998,35.6179229 183.061998,45.3299229 C182.912998,47.1909229 182.613998,49.0209229 182.311998,50.8589229 C182.193998,51.5339229 181.402998,51.9929229 180.824998,51.5519229" id="Fill-31" fill="#505050"></path>
            <path d="M199.601598,46.0582229 C181.743598,46.1002229 182.663598,23.9812229 197.167598,18.6082229 C203.346598,16.0422229 211.314598,19.6502229 210.167598,27.1002229 C209.164598,33.3472229 202.948598,38.0492229 196.653598,37.0702229 C202.857598,37.7002229 209.218598,37.3312229 215.433598,36.7962229 C216.599598,36.6402229 217.709598,36.7812229 218.705598,37.4552229 C221.859598,39.4192229 220.795598,44.7322229 217.108598,45.2802229 C211.299598,45.9902229 205.443598,46.0712229 199.601598,46.0582229 M194.010598,32.2922229 C197.641598,31.8622229 201.572598,31.0122229 203.898598,27.9292229 C204.734598,26.8622229 205.681598,24.9502229 204.346598,23.9082229 C199.421598,22.1842229 194.642598,27.7832229 194.010598,32.2922229" id="Fill-33" fill="#505050"></path>
            <path d="M225.969498,45.8610229 C225.261498,45.7710229 224.642498,44.9250229 224.609498,44.3450229 C223.114498,38.4260229 222.532498,32.3120229 221.043498,26.3840229 C220.617498,24.4160229 220.324498,22.4240229 219.891498,20.4550229 C219.077498,16.9580229 223.422498,14.1030229 226.313498,16.2160229 C230.932498,19.9610229 229.366498,38.4490229 227.512498,43.8770229 C228.052498,44.9010229 227.052498,46.1020229 225.969498,45.8610229" id="Fill-35" fill="#505050"></path>
            <g id="Group-39" transform="translate(226.105480, 16.254518)">
                <mask id="mask-2" fill="white">
                    <use xlink:href="#path-1"></use>
                </mask>
                <g id="Clip-38"></g>
                <path d="M1.04421825,18.3709047 C-1.13278175,15.3429047 0.529218247,11.3369047 2.08921825,8.4049047 C4.35921825,4.0489047 8.34621825,-0.245095304 13.6592182,0.0109046956 C16.6782182,0.132904696 18.2752182,4.1069047 16.2062182,6.2919047 C15.4182182,7.2289047 14.3012182,7.4839047 13.1502182,7.6519047 C11.6082182,8.4069047 10.2632182,9.5459047 8.99221825,10.6919047 C7.10021825,12.6959047 5.28321825,14.8349047 4.15921825,17.3749047 C4.33821825,19.1439047 1.92721825,20.0479047 1.04421825,18.3709047" id="Fill-37" fill="#505050" mask="url(#mask-2)"></path>
            </g>
        </g>
        <g id="Group" transform="translate(50.000000, 48.000000)" fill="#FFFFFF">
            <g id="Group" transform="translate(9.000000, 16.000000)">
                <path d="M210.217385,163.724042 C206.629385,162.004042 204.962385,157.187042 206.897385,153.665042 C208.196385,151.491042 209.310385,149.226042 210.303385,146.893042 C215.007385,136.260042 216.610385,124.508042 216.989385,112.965042 C217.121385,95.2710424 212.451385,77.2790424 201.760385,62.9810424 C192.048385,50.9100424 178.338385,42.7350424 164.529385,36.1170424 C159.117385,33.8000424 153.529385,31.9320424 148.057385,29.7750424 C144.313385,28.0260424 138.981385,27.6670424 138.607385,22.6770424 C138.350385,19.9620424 140.350385,17.5790424 142.647385,16.4230424 C148.736385,13.3630424 160.953385,19.4770424 166.412385,22.8020424 C174.606385,28.7360424 183.355385,33.8640424 191.138385,40.3710424 C202.597385,49.1590424 214.039385,58.6380424 221.592385,71.1420424 C231.405385,87.2060424 233.108385,106.941042 231.107385,125.314042 C229.980385,135.525042 227.580385,145.659042 223.127385,154.954042 C220.749385,160.553042 217.336385,166.825042 210.217385,163.724042" id="Fill-1"></path>
                <path d="M26.3020855,138.192042 C25.6110855,138.110042 25.1650855,137.508042 24.7940855,136.981042 C21.7440855,132.291042 20.3750855,126.956042 19.2160855,121.661042 C16.3590855,106.655042 17.7720855,91.0320424 23.2980855,76.7900424 C25.6080855,70.6150424 28.2240855,64.5050424 31.7630855,58.9220424 C35.3230855,53.4300424 39.8290855,48.5850424 44.5400855,44.0670424 C57.6720855,31.9160424 73.5900855,21.7710424 91.2320855,17.9180424 C96.1870855,17.1100424 102.010085,15.1550424 106.556085,18.1490424 C110.121085,20.4900424 110.441085,25.8880424 107.216085,28.6650424 C104.978085,30.8800424 101.733085,31.0950424 98.8250855,31.7350424 C93.7360855,32.6030424 88.6880855,33.7330424 83.9230855,35.7760424 C68.7240855,42.3570424 55.0520855,52.5260424 44.6110855,65.4020424 C34.0470855,80.2920424 26.7670855,98.7780424 25.9310855,117.102042 C25.9280855,120.156042 25.9650855,123.207042 26.3250855,126.243042 C26.3100855,128.349042 29.0820855,138.426042 26.3020855,138.192042" id="Fill-3"></path>
                <path d="M120.016485,214.472642 C105.672485,213.825642 91.2704855,211.821642 77.5004855,207.659642 C65.7644855,204.090642 55.2814855,197.486642 45.7194855,189.921642 C41.2304855,186.108642 37.0204855,181.960642 33.1334855,177.530642 C30.6534855,174.826642 28.1294855,171.620642 29.0594855,167.718642 C30.1994855,161.681642 38.2704855,160.332642 42.0274855,164.804642 C46.2154855,170.215642 51.1964855,175.011642 56.4734855,179.354642 C62.7484855,183.970642 69.1804855,188.520642 76.4304855,191.474642 C86.5374855,195.585642 97.2604855,198.152642 107.996485,199.988642 C114.920485,201.157642 121.857485,202.493642 128.865485,202.968642 C144.156485,203.099642 157.756485,201.417642 171.102485,193.414642 C174.478485,191.196642 177.779485,188.848642 181.065485,186.496642 C185.964485,182.304642 191.169485,177.970642 197.641485,176.624642 C199.249485,175.932642 201.922485,175.669642 201.872205,178.132642 C201.743485,179.116642 201.054485,179.880642 200.534485,180.698642 C198.028485,185.521642 193.690485,189.032642 189.371485,192.182642 C168.087485,209.093642 146.684485,214.096642 120.016485,214.472642" id="Fill-5"></path>
                <path d="M191.555785,218.749842 C188.578785,218.518842 186.188785,215.796842 186.465785,212.792842 C186.717785,210.959842 187.365785,209.247842 187.387785,207.378842 C188.346785,200.954842 188.033785,194.412842 189.484785,188.042842 C190.086785,185.259842 194.029785,170.266842 198.078785,173.140842 C199.024785,174.011842 199.223785,175.503842 199.461785,176.710842 C200.130785,180.493842 200.534785,184.362842 200.531785,188.206842 C200.615785,193.863842 199.361785,199.358842 198.256785,204.861842 C197.855785,207.790842 197.475785,210.707842 197.516785,213.655842 C197.272785,216.623842 194.556785,219.040842 191.555785,218.749842" id="Fill-7"></path>
                <path d="M170.414885,186.478542 C168.660885,186.388542 166.914885,185.626542 165.340885,184.892542 C160.716885,182.797542 161.233885,175.448542 166.098885,174.005542 C168.609885,173.088542 171.240885,172.825542 173.887885,173.185542 C179.374885,173.309542 184.814885,173.982542 190.312885,173.892542 C191.710885,173.976542 193.090885,174.244542 194.473885,174.465542 C196.751885,174.728542 199.445885,174.573542 201.031885,176.548542 C202.066885,177.837542 202.332885,179.716542 201.316885,181.122542 C200.351885,182.455542 198.902885,183.162542 197.344885,183.583542 C192.982885,184.919542 188.500885,185.575542 183.957885,185.755542 C179.454885,186.176542 174.947885,186.616542 170.414885,186.478542" id="Fill-9"></path>
                <path d="M155.374585,55.7706424 C149.013585,53.7466424 149.264585,45.8416424 147.497585,40.5216424 C145.418585,33.9106424 143.547585,27.1846424 139.835585,21.4506424 C138.114585,18.8936424 139.839585,16.5836424 142.780585,17.6146424 C146.423585,18.9826424 148.230585,22.7786424 150.374585,25.7626424 C153.909585,30.2066424 156.429585,35.2566424 158.902585,40.3406424 C160.133585,43.1726424 161.916585,45.9016424 162.222585,49.0276424 C162.530585,52.7806424 159.521585,57.2396424 155.374585,55.7706424" id="Fill-11"></path>
                <path d="M143.257385,23.3670424 C138.844385,21.1190424 145.151385,16.1300424 147.074385,14.1910424 C150.783385,10.8800424 155.340385,8.80104238 159.370385,5.94904238 C163.178385,3.44404238 167.084385,-0.013957625 171.866385,0 C175.617385,0.226042375 177.973385,4.49504238 176.269385,7.81304238 C174.954385,9.98404238 173.840385,10.7610424 171.890385,11.9140424 C168.622385,13.4400424 165.073385,14.4010424 161.710385,15.6480424 C158.519385,16.9690424 155.437385,18.4960424 152.300385,19.9290424 C150.781385,20.6250424 149.249385,21.2930424 147.753385,22.0310424 C146.335385,22.6830424 144.891385,23.8960424 143.257385,23.3670424" id="Fill-13"></path>
                <path d="M24.8959855,138.486642 C19.7429855,134.291642 34.1589855,115.141642 38.9199855,113.158642 C40.9379855,111.926642 42.9409855,110.681642 44.6299855,109.005642 C46.4119855,107.377642 49.3179855,107.634642 50.8839855,109.419642 C53.6549855,112.913642 50.7649855,115.337642 48.4799855,117.882642 C46.8139855,120.084642 45.6589855,122.657642 43.8729855,124.763642 C41.9699855,126.849642 39.8449855,128.716642 37.7519855,130.603642 C35.8339855,132.326642 33.9589855,134.087642 32.1029855,135.869642 C30.2749855,137.645642 27.4789855,140.566642 24.8959855,138.486642" id="Fill-15"></path>
                <path d="M20.8583855,138.238442 C14.4183855,135.450442 7.94638545,132.378442 2.30838545,128.183442 C-3.54061455,122.772442 2.73138545,113.459442 9.92838545,116.917442 C11.2923855,117.617442 12.4523855,118.589442 13.6473855,119.535442 C16.4503855,121.734442 19.0813855,124.154442 21.5183855,126.749442 C23.9143855,129.600442 27.0053855,132.327442 28.1203855,135.964442 C28.8613855,140.877442 23.6643855,139.748442 20.8583855,138.238442" id="Fill-17"></path>
            </g>
        </g>
    </g>
</svg>