<?xml version="1.0" encoding="UTF-8"?>
<svg width="576px" height="140px" viewBox="0 0 576 140" version="1.1" xmlns="http://www.w3.org/2000/svg" xmlns:xlink="http://www.w3.org/1999/xlink">
    <!-- Generator: Sketch 52.5 (67469) - http://www.bohemiancoding.com/sketch -->
    <title>Group 23</title>
    <desc>Created with Sketch.</desc>
    <g id="Page-1" stroke="none" stroke-width="1" fill="none" fill-rule="evenodd">
        <g id="REVELIS-page-FILETS" transform="translate(-400.000000, -538.000000)" fill="#FEFEFE">
            <g id="Group-23" transform="translate(400.000000, 538.000000)">
                <g id="Group-22">
                    <g id="Group-5" transform="translate(0.000000, 1.507084)">
                        <g id="Group-3">
                            <path d="M45.8770893,130.610966 L65.624916,130.610966 L65.624916,135.523781 L0.595597977,135.523781 L0.595597977,130.610966 L20.3434247,130.610966 L20.3434247,9.15630302 L0.595597977,9.15630302 L0.595597977,4.24136319 L67.4219191,4.24136319 C89.1630961,4.24136319 115.097992,6.79653718 115.097992,34.1154465 C115.097992,56.3240077 91.3591962,63.9874057 72.8086602,65.9521072 L72.8086602,66.3450476 C103.925413,71.0603312 110.908542,87.5701961 110.908542,119.604389 C110.908542,126.48403 111.50612,134.344961 130.656368,130.808498 L130.656368,135.523781 C125.07328,136.900134 119.485924,137.881423 113.700086,137.881423 C93.553162,137.881423 82.9802955,127.858259 82.9802955,107.811932 C82.9802955,91.5017231 80.1887515,79.3163257 75.002626,74.9939823 C69.4174036,70.2744506 63.0339875,67.9189328 56.8490527,67.9189328 L45.8770893,67.9189328 L45.8770893,130.610966 Z M45.8770893,63.0039929 L62.2357937,63.0039929 C80.1887515,63.0039929 87.5688427,54.5525904 87.5688427,36.8660286 C87.5688427,14.8549995 80.984811,9.15630302 63.2324688,9.15630302 L45.8770893,9.15630302 L45.8770893,63.0039929 Z" id="Fill-3"></path>
                            <g id="Group-21" transform="translate(330.482985, 0.000000)">
                                <path d="M46.8368216,0.856766556 C42.0946115,-0.891286806 36.8103124,1.47697504 35.0346514,6.14977868 C29.8741364,19.7370173 16.8789438,31.4869944 0.562923603,35.9962499 L0.562923603,40.5097534 C19.0216887,40.4205454 38.5262157,31.6420465 50.7915091,14.9643855 L51.0753588,14.5820652 C51.5363477,13.9491128 51.9183709,13.2481922 52.2086232,12.4835516 C53.9842843,7.81074797 51.5790318,2.60481992 46.8368216,0.856766556" id="Fill-11"></path>
                            </g>
                        </g>
                    </g>
                    <g id="Group" transform="translate(129.880893, 0.000000)">
                        <polygon id="Fill-6" points="131.867282 59.2046832 131.867282 64.1196231 119.301065 64.1196231 139.249507 113.252029 160.39524 64.1196231 146.631733 64.1196231 146.631733 59.2046832 177.150907 59.2046832 177.150907 64.1196231 166.377425 64.1196231 134.261863 139.978342 129.075738 139.978342 96.7616942 64.1196231 86.5857904 64.1196231 86.5857904 59.2046832"></polygon>
                        <polygon id="Fill-7" points="264.951584 137.030228 264.951584 132.117412 279.912383 132.117412 279.912383 5.7201976 265.549163 5.7201976 265.547029 0.809505778 301.457212 0.809505778 301.457212 132.117412 316.018914 132.117412 316.018914 137.030228"></polygon>
                        <polygon id="Fill-8" points="324.606113 137.030228 324.606113 132.117412 339.167814 132.117412 339.167814 64.1196231 324.606113 64.1196231 324.601845 59.2025592 360.714778 59.2025592 360.712644 132.117412 375.472827 132.117412 375.472827 137.030228"></polygon>
                        <path d="M391.041234,137.030228 L387.850593,137.030228 L387.850593,108.927562 L393.2352,108.927562 C395.232818,122.880129 403.411104,136.048939 418.572517,136.048939 C427.346246,136.048939 436.721822,130.15271 436.721822,120.324955 C436.721822,110.499323 427.546862,109.51591 417.174611,108.141681 C396.626456,105.388975 388.849402,97.1351048 388.849402,82.003717 C388.849402,67.0677374 399.221653,58.0258623 413.981836,58.0258623 C420.96283,58.0258623 427.945959,60.185972 433.533315,64.3129072 L436.721822,59.2046832 L440.113079,59.2046832 L440.113079,82.3945333 L434.926953,82.3945333 C433.729662,71.783021 425.15228,61.9573894 413.981836,61.9573894 C406.202648,61.9573894 397.823747,66.4751409 397.823747,75.517016 C397.823747,81.4132445 398.820422,83.5754782 416.77338,86.5214685 C434.926953,89.4695828 445.299204,92.6131053 445.299204,112.856965 C445.299204,131.724472 434.728472,139.978342 416.77338,139.978342 C410.191482,139.978342 401.616235,136.244347 396.827072,131.724472 L391.041234,137.030228 Z" id="Fill-9"></path>
                        <path d="M66.166115,2.36385019 C61.4239048,0.615796827 56.1396058,2.98405867 54.3639447,7.65686231 C49.2034298,21.2441009 36.2082372,32.994078 19.892217,37.5033336 L19.892217,42.0168371 C38.350982,41.927629 57.855509,33.1491302 70.1208025,16.4714692 L70.4046521,16.0891489 C70.8656411,15.4561964 71.2497985,14.7552758 71.5400508,13.9906352 C73.3135776,9.3178316 70.9083252,4.11190355 66.166115,2.36385019" id="Fill-13"></path>
                        <path d="M348.241186,27.4164497 C340.837619,27.4164497 335.344167,20.120504 335.344167,13.2960867 C335.344167,6.94319775 341.79161,0.590308807 348.241186,0.590308807 C355.17096,0.590308807 362.335496,6.2359052 362.335496,13.2960867 C362.335496,21.2972009 356.363982,27.4164497 348.241186,27.4164497" id="Fill-15"></path>
                        <path d="M69.4786193,116.561861 C64.6275645,127.85093 54.5348948,136.047452 41.691231,136.047452 C24.7349484,136.047452 23.9367546,123.076174 23.9367546,109.319015 L23.9367546,93.5971552 L70.6161521,93.5971552 C73.8067931,93.5971552 75.601662,94.1876277 75.601662,90.0606925 C75.601662,70.6027133 58.4468981,58.0243755 39.8963621,58.0243755 C18.1509167,58.0243755 0.19795889,77.6798868 0.19795889,99.2958517 C0.19795889,119.344303 15.9569508,139.978979 37.7023962,139.978979 C54.7867313,139.978979 67.4938058,133.36059 73.8089273,118.696483 L69.4786193,116.561861 Z M38.6990714,61.9580266 C56.4514136,61.9580266 53.0601571,75.5176532 53.0601571,88.6843394 L23.9367546,88.6843394 C23.9367546,76.3035338 22.1397514,61.9580266 38.6990714,61.9580266 Z" id="Fill-17"></path>
                        <path d="M250.036458,116.561861 C245.185404,127.85093 235.092734,136.047452 222.24907,136.047452 C205.292787,136.047452 204.494594,123.076174 204.494594,109.319015 L204.494594,93.5971552 L251.173991,93.5971552 C254.364632,93.5971552 256.159501,94.1876277 256.159501,90.0606925 C256.159501,70.6027133 239.004737,58.0243755 220.454201,58.0243755 C198.708756,58.0243755 180.755798,77.6798868 180.755798,99.2958517 C180.755798,119.344303 196.51479,139.978979 218.260235,139.978979 C235.34457,139.978979 248.051645,133.36059 254.366766,118.696483 L250.036458,116.561861 Z M219.25691,61.9580266 C237.009253,61.9580266 233.617996,75.5176532 233.617996,88.6843394 L204.494594,88.6843394 C204.494594,76.3035338 202.697591,61.9580266 219.25691,61.9580266 Z" id="Fill-19"></path>
                    </g>
                </g>
            </g>
        </g>
    </g>
</svg>