<?xml version="1.0" encoding="UTF-8"?>
<svg width="16px" height="16px" viewBox="0 0 16 16" version="1.1" xmlns="http://www.w3.org/2000/svg" xmlns:xlink="http://www.w3.org/1999/xlink">
    <title>ico-play-circle</title>
    <g id="ico-play-circle" stroke="none" stroke-width="1" fill="none" fill-rule="evenodd">
        <path d="M8,15 C4.13400675,15 1,11.8659932 1,8 C1,4.13400675 4.13400675,1 8,1 C11.8659932,1 15,4.13400675 15,8 C15,11.8659932 11.8659932,15 8,15 Z M8,16 C12.418278,16 16,12.418278 16,8 C16,3.581722 12.418278,0 8,0 C3.581722,0 0,3.581722 0,8 C0,12.418278 3.581722,16 8,16 Z" id="Shape" fill="#000000" fill-rule="nonzero"></path>
        <path d="M6.271,5.055 C6.43774194,4.96913795 6.6385119,4.9838096 6.791,5.093 L10.291,7.593 C10.422507,7.68684249 10.5005676,7.83844351 10.5005676,8 C10.5005676,8.16155649 10.422507,8.31315751 10.291,8.407 L6.791,10.907 C6.63856703,11.0160965 6.43791763,11.0307675 6.27123693,10.9450039 C6.10455623,10.8592402 5.99984789,10.6874509 5.99999972,10.5 L5.99999972,5.5 C5.9998037,5.3126025 6.10441244,5.140828 6.271,5.055 Z" id="Path" fill="#000000" fill-rule="nonzero"></path>
    </g>
</svg>